<svg width="20" height="20" viewBox="0 0 20 20" fill="none" xmlns="http://www.w3.org/2000/svg">
<path d="M3.125 3.75C2.09688 3.75 1.25 4.59688 1.25 5.625V14.375C1.25 15.4031 2.09688 16.25 3.125 16.25H16.875C17.9031 16.25 18.75 15.4031 18.75 14.375V5.625C18.75 4.59688 17.9031 3.75 16.875 3.75H3.125ZM3.125 5H16.875C17.2288 5 17.5 5.27125 17.5 5.625V14.375C17.5 14.7288 17.2288 15 16.875 15H3.125C2.77125 15 2.5 14.7288 2.5 14.375V5.625C2.5 5.27125 2.77125 5 3.125 5ZM6.87375 6.875C6.58313 6.875 6.25125 7.04063 6.03625 7.2825C5.87 7.48313 5.68937 7.80187 5.75187 8.12C6.05 8.155 6.37563 7.96813 6.5625 7.72625C6.77 7.50438 6.8875 7.19313 6.87375 6.875ZM8.125 8.125V11.875H8.7075V10.5906H9.51813C10.2525 10.5906 10.7712 10.0856 10.7712 9.35812C10.7712 8.62375 10.2587 8.125 9.53125 8.125H8.125ZM4.89875 8.45187C4.24875 8.45187 3.75 9.02063 3.75 9.83625C3.75 10.8987 4.49625 11.875 4.9625 11.875C5.24375 11.875 5.34625 11.6856 5.72 11.6856C6.06438 11.6856 6.17312 11.875 6.46625 11.875C7.0225 11.875 7.4825 10.7438 7.5 10.675C7.40812 10.6287 6.87313 10.3769 6.87375 9.76812C6.87375 9.17687 7.36188 8.91187 7.385 8.9C7.115 8.49813 6.69 8.45187 6.52937 8.45187C6.15625 8.45187 5.83 8.65375 5.65188 8.65375C5.46813 8.65375 5.1975 8.45187 4.89875 8.45187ZM8.7075 8.61687H9.37875C9.88437 8.61687 10.1756 8.88687 10.1756 9.35812C10.1756 9.82937 9.88437 10.1062 9.37875 10.1062H8.7075V8.61687ZM12.1438 9.08187C11.5275 9.08187 11.0694 9.43563 11.0563 9.92063H11.5819C11.6237 9.69187 11.8381 9.53937 12.1287 9.53937C12.4888 9.53937 12.6844 9.70625 12.6844 10.0112V10.2188L11.9569 10.2675C11.285 10.3094 10.9169 10.5862 10.9169 11.0644C10.9169 11.5494 11.2913 11.875 11.8313 11.875C12.1981 11.875 12.5388 11.6875 12.6906 11.3962H12.7038V11.8469H13.2444V9.97688C13.2444 9.43625 12.8088 9.08187 12.1438 9.08187ZM13.4837 9.1175L14.4675 11.8544L14.4187 12.02C14.3287 12.2975 14.1831 12.4088 13.9269 12.4088C13.8788 12.4088 13.7894 12.4012 13.755 12.4012V12.8512C13.79 12.8581 13.9338 12.865 13.9756 12.865C14.5444 12.865 14.8144 12.6438 15.0506 11.9925L16.0681 9.1175H15.4788L14.7937 11.3344H14.7787L14.0944 9.1175H13.4837ZM12.6838 10.6125V10.8212H12.6831C12.6831 11.1744 12.3856 11.4231 11.9913 11.4231C11.6788 11.4231 11.4856 11.2788 11.4856 11.05C11.4856 10.8144 11.6725 10.675 12.04 10.6544L12.6838 10.6125Z" fill="black"/>
</svg>
