<svg width="27" height="28" viewBox="0 0 27 28" fill="none" xmlns="http://www.w3.org/2000/svg">
<mask id="mask0_295_574" style="mask-type:luminance" maskUnits="userSpaceOnUse" x="0" y="0" width="27" height="28">
<path d="M26.3716 11.1691H13.6512V16.4434H20.9732C20.2906 19.7942 17.4363 21.7178 13.6512 21.7178C9.18351 21.7178 5.58457 18.1188 5.58457 13.6512C5.58457 9.18351 9.18351 5.58457 13.6512 5.58457C15.5747 5.58457 17.3122 6.26712 18.6773 7.38404L22.6485 3.41279C20.2285 1.30307 17.126 0 13.6512 0C6.08097 0 0 6.08097 0 13.6512C0 21.2214 6.08097 27.3023 13.6512 27.3023C20.4767 27.3023 26.6818 22.3383 26.6818 13.6512C26.6818 12.8445 26.5577 11.9758 26.3716 11.1691Z" fill="white"/>
</mask>
<g mask="url(#mask0_295_574)">
<path d="M-1.24121 21.7178V5.58459L9.30742 13.6512L-1.24121 21.7178Z" fill="#FBBC05"/>
</g>
<mask id="mask1_295_574" style="mask-type:luminance" maskUnits="userSpaceOnUse" x="0" y="0" width="27" height="28">
<path d="M26.3716 11.1691H13.6512V16.4434H20.9732C20.2906 19.7942 17.4363 21.7178 13.6512 21.7178C9.18351 21.7178 5.58457 18.1188 5.58457 13.6512C5.58457 9.18351 9.18351 5.58457 13.6512 5.58457C15.5747 5.58457 17.3122 6.26712 18.6773 7.38404L22.6485 3.41279C20.2285 1.30307 17.126 0 13.6512 0C6.08097 0 0 6.08097 0 13.6512C0 21.2214 6.08097 27.3023 13.6512 27.3023C20.4767 27.3023 26.6818 22.3383 26.6818 13.6512C26.6818 12.8445 26.5577 11.9758 26.3716 11.1691Z" fill="white"/>
</mask>
<g mask="url(#mask1_295_574)">
<path d="M-1.24121 5.58455L9.30742 13.6511L13.651 9.86605L28.5431 7.44608V-1.24103H-1.24121V5.58455Z" fill="#EA4335"/>
</g>
<mask id="mask2_295_574" style="mask-type:luminance" maskUnits="userSpaceOnUse" x="0" y="0" width="27" height="28">
<path d="M26.3716 11.1691H13.6512V16.4434H20.9732C20.2906 19.7942 17.4363 21.7178 13.6512 21.7178C9.18351 21.7178 5.58457 18.1188 5.58457 13.6512C5.58457 9.18351 9.18351 5.58457 13.6512 5.58457C15.5747 5.58457 17.3122 6.26712 18.6773 7.38404L22.6485 3.41279C20.2285 1.30307 17.126 0 13.6512 0C6.08097 0 0 6.08097 0 13.6512C0 21.2214 6.08097 27.3023 13.6512 27.3023C20.4767 27.3023 26.6818 22.3383 26.6818 13.6512C26.6818 12.8445 26.5577 11.9758 26.3716 11.1691Z" fill="white"/>
</mask>
<g mask="url(#mask2_295_574)">
<path d="M-1.24121 21.7177L17.374 7.44608L22.276 8.06658L28.5431 -1.24103V28.5433H-1.24121V21.7177Z" fill="#34A853"/>
</g>
<mask id="mask3_295_574" style="mask-type:luminance" maskUnits="userSpaceOnUse" x="0" y="0" width="27" height="28">
<path d="M26.3716 11.1691H13.6512V16.4434H20.9732C20.2906 19.7942 17.4363 21.7178 13.6512 21.7178C9.18351 21.7178 5.58457 18.1188 5.58457 13.6512C5.58457 9.18351 9.18351 5.58457 13.6512 5.58457C15.5747 5.58457 17.3122 6.26712 18.6773 7.38404L22.6485 3.41279C20.2285 1.30307 17.126 0 13.6512 0C6.08097 0 0 6.08097 0 13.6512C0 21.2214 6.08097 27.3023 13.6512 27.3023C20.4767 27.3023 26.6818 22.3383 26.6818 13.6512C26.6818 12.8445 26.5577 11.9758 26.3716 11.1691Z" fill="white"/>
</mask>
<g mask="url(#mask3_295_574)">
<path d="M28.5432 28.5434L9.30747 13.6512L6.82544 11.7897L28.5432 5.58459V28.5434Z" fill="#4285F4"/>
</g>
</svg>
