<svg width="17" height="16" viewBox="0 0 17 16" fill="none" xmlns="http://www.w3.org/2000/svg">
<path d="M4.5 1.3335L2.5 4.00016V13.3335C2.5 13.6871 2.64048 14.0263 2.89052 14.2763C3.14057 14.5264 3.47971 14.6668 3.83333 14.6668H13.1667C13.5203 14.6668 13.8594 14.5264 14.1095 14.2763C14.3595 14.0263 14.5 13.6871 14.5 13.3335V4.00016L12.5 1.3335H4.5Z" stroke="#4F705B" stroke-width="1.5" stroke-linecap="round" stroke-linejoin="round"/>
<path d="M2.5 4H14.5" stroke="#4F705B" stroke-width="1.5" stroke-linecap="round" stroke-linejoin="round"/>
<path d="M11.1667 6.6665C11.1667 7.37375 10.8857 8.05203 10.3856 8.55212C9.88553 9.05222 9.20725 9.33317 8.50001 9.33317C7.79277 9.33317 7.11449 9.05222 6.61439 8.55212C6.11429 8.05203 5.83334 7.37375 5.83334 6.6665" stroke="#4F705B" stroke-width="1.5" stroke-linecap="round" stroke-linejoin="round"/>
</svg>
