<svg width="18" height="18" viewBox="0 0 18 18" fill="none" xmlns="http://www.w3.org/2000/svg">
<path d="M9 6.01851L9.52409 7.08025C9.81516 7.66994 10.3775 8.07886 11.0282 8.17397L12.2032 8.34571L11.3545 9.17228C10.8828 9.63177 10.6675 10.294 10.7788 10.9431L10.9786 12.1083L9.9309 11.5574C9.34814 11.2509 8.65186 11.2509 8.0691 11.5574L7.02136 12.1083L7.22122 10.9431C7.33254 10.294 7.11721 9.63177 6.64547 9.17228L5.79682 8.34571L6.97176 8.17397C7.62246 8.07886 8.18483 7.66994 8.47591 7.08025L9 6.01851Z" stroke="#4F705B" stroke-width="4" stroke-linecap="round" stroke-linejoin="round"/>
<path d="M9 6.01851L9.52409 7.08025C9.81516 7.66994 10.3775 8.07886 11.0282 8.17397L12.2032 8.34571L11.3545 9.17228C10.8828 9.63177 10.6675 10.294 10.7788 10.9431L10.9786 12.1083L9.9309 11.5574C9.34814 11.2509 8.65186 11.2509 8.0691 11.5574L7.02136 12.1083L7.22122 10.9431C7.33254 10.294 7.11721 9.63177 6.64547 9.17228L5.79682 8.34571L6.97176 8.17397C7.62246 8.07886 8.18483 7.66994 8.47591 7.08025L9 6.01851Z" stroke="#4F705B" stroke-width="4" stroke-linecap="round" stroke-linejoin="round"/>
</svg>
