<svg width="17" height="16" viewBox="0 0 17 16" fill="none" xmlns="http://www.w3.org/2000/svg">
<path d="M2.5 4H3.83333H14.5" stroke="black" stroke-width="1.2" stroke-linecap="round" stroke-linejoin="round"/>
<path d="M13.1667 4V13.3333C13.1667 13.687 13.0262 14.0261 12.7762 14.2761C12.5261 14.5262 12.187 14.6667 11.8334 14.6667H5.16671C4.81309 14.6667 4.47395 14.5262 4.2239 14.2761C3.97385 14.0261 3.83337 13.687 3.83337 13.3333V4M5.83337 4V2.66667C5.83337 2.31304 5.97385 1.9739 6.2239 1.72386C6.47395 1.47381 6.81309 1.33333 7.16671 1.33333H9.83337C10.187 1.33333 10.5261 1.47381 10.7762 1.72386C11.0262 1.9739 11.1667 2.31304 11.1667 2.66667V4" stroke="black" stroke-width="1.2" stroke-linecap="round" stroke-linejoin="round"/>
<path d="M7.16663 7.33333V11.3333" stroke="black" stroke-width="1.2" stroke-linecap="round" stroke-linejoin="round"/>
<path d="M9.83337 7.33333V11.3333" stroke="black" stroke-width="1.2" stroke-linecap="round" stroke-linejoin="round"/>
</svg>
