<svg width="16" height="15" viewBox="0 0 16 15" fill="none" xmlns="http://www.w3.org/2000/svg">
<path d="M8 5.01851L8.52409 6.08025C8.81516 6.66994 9.37753 7.07886 10.0282 7.17397L11.2032 7.34571L10.3545 8.17228C9.88279 8.63177 9.66746 9.29403 9.77878 9.94309L9.97864 11.1083L8.9309 10.5574C8.34814 10.2509 7.65186 10.2509 7.0691 10.5574L6.02136 11.1083L6.22122 9.94309C6.33254 9.29403 6.11721 8.63177 5.64547 8.17228L4.79682 7.34571L5.97176 7.17397C6.62246 7.07886 7.18483 6.66994 7.47591 6.08025L8 5.01851Z" stroke="#4F705B" stroke-width="4" stroke-linecap="round" stroke-linejoin="round"/>
<path d="M8 5.01851L8.52409 6.08025C8.81516 6.66994 9.37753 7.07886 10.0282 7.17397L11.2032 7.34571L10.3545 8.17228C9.88279 8.63177 9.66746 9.29403 9.77878 9.94309L9.97864 11.1083L8.9309 10.5574C8.34814 10.2509 7.65186 10.2509 7.0691 10.5574L6.02136 11.1083L6.22122 9.94309C6.33254 9.29403 6.11721 8.63177 5.64547 8.17228L4.79682 7.34571L5.97176 7.17397C6.62246 7.07886 7.18483 6.66994 7.47591 6.08025L8 5.01851Z" stroke="#4F705B" stroke-width="4" stroke-linecap="round" stroke-linejoin="round"/>
</svg>
